<svg width="17" height="17" viewBox="0 0 17 17" fill="none" xmlns="http://www.w3.org/2000/svg">
<path d="M8.5 11.1562C9.96701 11.1562 11.1562 9.96701 11.1562 8.5C11.1562 7.03299 9.96701 5.84375 8.5 5.84375C7.03299 5.84375 5.84375 7.03299 5.84375 8.5C5.84375 9.96701 7.03299 11.1562 8.5 11.1562Z" stroke="#0F172A" stroke-linecap="round" stroke-linejoin="round"/>
<path d="M12.0262 13.8125C10.8429 14.5981 9.43111 14.9661 8.01488 14.858C6.59864 14.7499 5.25906 14.172 4.2087 13.2159C3.15833 12.2598 2.45735 10.9803 2.21697 9.5804C1.97659 8.18053 2.21058 6.74048 2.88183 5.48875C3.55307 4.23701 4.62311 3.24529 5.92216 2.67094C7.22121 2.0966 8.67486 1.97252 10.0525 2.31841C11.4301 2.6643 12.6527 3.46033 13.5263 4.58021C14.4 5.70008 14.8747 7.07964 14.875 8.5C14.875 9.96758 14.3438 11.1562 13.0156 11.1562C11.6875 11.1562 11.1563 9.96758 11.1563 8.5V5.84375" stroke="#0F172A" stroke-linecap="round" stroke-linejoin="round"/>
</svg>
