<svg width="18" height="18" viewBox="0 0 18 18" fill="none" xmlns="http://www.w3.org/2000/svg">
<path d="M14.3646 4.07056C13.2361 2.84009 11.5696 2.1897 9.54464 2.1897C7.75168 2.1897 6.00441 2.88579 4.6298 4.15142C3.25519 5.41704 2.41144 7.09751 2.25324 8.89048C2.09503 10.7081 2.65753 12.4167 3.83527 13.7034C5.00949 14.9831 6.64777 15.6897 8.4548 15.6897C9.59738 15.6897 10.3392 15.6053 11.4607 15.1377C11.7454 15.0182 11.8825 14.6877 11.763 14.403C11.6435 14.1182 11.313 13.9811 11.0282 14.1006C10.072 14.5014 9.48839 14.5682 8.45832 14.5682C6.97121 14.5682 5.62472 13.9917 4.66847 12.9475C3.70519 11.8963 3.24464 10.4901 3.37824 8.99243C3.65246 5.86353 6.42277 3.31821 9.55168 3.31821C11.2532 3.31821 12.6314 3.84204 13.5419 4.83345C14.4068 5.77915 14.7935 7.08345 14.6599 8.6022C14.5439 9.91704 14.0341 10.5639 13.6298 10.8733C13.2431 11.1686 12.8564 11.2319 12.6454 11.1932C12.0232 11.0842 11.6997 10.4725 11.7806 9.56548L12.0794 6.17993C12.1075 5.87056 11.879 5.59634 11.5696 5.57173C11.2603 5.5436 10.9861 5.77212 10.9614 6.08149L10.9333 6.40142C10.3989 5.86353 9.68879 5.56821 8.92589 5.56821C8.08918 5.56821 7.29113 5.92329 6.67589 6.56665C6.08527 7.18188 5.71964 8.01157 5.6423 8.89399C5.55441 9.87485 5.84621 10.803 6.43332 11.4463C6.9466 12.0088 7.65675 12.3182 8.43371 12.3182C9.29152 12.3182 10.1001 12.0018 10.7083 11.4323C10.7927 11.3549 10.8736 11.2706 10.9474 11.1827C11.2954 11.8542 11.8931 12.2022 12.4556 12.3042C13.0497 12.4096 13.7458 12.2092 14.3224 11.7698C14.9095 11.3198 15.6372 10.4233 15.7884 8.70415C15.9325 6.87954 15.4333 5.23774 14.3646 4.07056ZM8.41964 11.1897C7.95558 11.1897 7.55128 11.0139 7.24894 10.6834C6.87277 10.2721 6.68996 9.65337 6.74972 8.98892C6.86222 7.69868 7.81496 6.6897 8.91535 6.6897C9.4005 6.6897 9.84699 6.88657 10.1775 7.24517C10.5607 7.66353 10.747 8.26118 10.6907 8.89048C10.5501 10.476 9.44621 11.1897 8.41964 11.1897Z" fill="url(#paint0_linear_360_45)"/>
<defs>
<linearGradient id="paint0_linear_360_45" x1="2.22705" y1="8.9397" x2="15.8127" y2="8.9397" gradientUnits="userSpaceOnUse">
<stop stop-color="#36D1DC"/>
<stop offset="1" stop-color="#5B86E5"/>
</linearGradient>
</defs>
</svg>
