<svg width="18" height="18" viewBox="0 0 18 18" fill="none" xmlns="http://www.w3.org/2000/svg">
<path d="M15.1872 15.7497C15.1133 15.7498 15.0402 15.7353 14.9719 15.707C14.9037 15.6787 14.8417 15.6372 14.7896 15.5848L2.41461 3.20982C2.31357 3.10347 2.25808 2.96186 2.25995 2.81519C2.26183 2.66851 2.32093 2.52837 2.42466 2.42464C2.52839 2.32091 2.66853 2.26181 2.81521 2.25993C2.96188 2.25806 3.10349 2.31355 3.20984 2.41459L15.5848 14.7896C15.6635 14.8683 15.717 14.9685 15.7387 15.0775C15.7604 15.1866 15.7492 15.2997 15.7067 15.4024C15.6641 15.5052 15.5921 15.593 15.4996 15.6548C15.4071 15.7166 15.2984 15.7497 15.1872 15.7497Z" fill="url(#paint0_linear_360_51)"/>
<path d="M8.98777 13.4997C7.52914 13.4997 6.12254 13.068 4.80699 12.2165C3.60922 11.4431 2.53097 10.3353 1.68863 9.01728V9.01447C2.38965 8.01006 3.15746 7.16068 3.98222 6.47584C3.98969 6.4696 3.99577 6.46188 4.0001 6.45317C4.00442 6.44446 4.0069 6.43495 4.00736 6.42524C4.00782 6.41552 4.00626 6.40582 4.00279 6.39674C3.99931 6.38766 3.99398 6.3794 3.98715 6.37248L3.28683 5.67322C3.27439 5.66067 3.25768 5.65327 3.24002 5.65249C3.22237 5.65171 3.20507 5.6576 3.19156 5.669C2.31547 6.40728 1.5023 7.31291 0.762967 8.37322C0.635766 8.55579 0.565712 8.77205 0.561705 8.99452C0.557699 9.217 0.619922 9.43564 0.740467 9.62267C1.66894 11.0757 2.8639 12.2995 4.19562 13.1611C5.69504 14.1325 7.30871 14.6247 8.98777 14.6247C9.89408 14.6219 10.794 14.4725 11.6526 14.1824C11.6639 14.1786 11.6741 14.1719 11.6821 14.1631C11.6902 14.1542 11.6958 14.1434 11.6985 14.1318C11.7012 14.1201 11.7009 14.108 11.6976 14.0965C11.6943 14.085 11.6882 14.0745 11.6797 14.0661L10.921 13.3074C10.9035 13.2904 10.882 13.2782 10.8583 13.272C10.8347 13.2658 10.8099 13.2659 10.7864 13.2722C10.1988 13.4235 9.59449 13.5 8.98777 13.4997Z" fill="url(#paint1_linear_360_51)"/>
<path d="M17.2558 8.38799C16.3256 6.94939 15.1187 5.72736 13.7659 4.85373C12.2693 3.88623 10.6169 3.3747 8.98777 3.3747C8.09107 3.3763 7.20102 3.52878 6.35492 3.82576C6.34365 3.82968 6.33356 3.83641 6.3256 3.84531C6.31765 3.85421 6.31209 3.86499 6.30945 3.87663C6.30682 3.88827 6.30719 3.90039 6.31053 3.91185C6.31387 3.92331 6.32007 3.93373 6.32855 3.94213L7.08617 4.69974C7.10381 4.71708 7.1257 4.72946 7.14965 4.73563C7.1736 4.7418 7.19876 4.74155 7.22258 4.7349C7.79807 4.57922 8.39159 4.50014 8.98777 4.4997C10.4183 4.4997 11.8207 4.9367 13.1555 5.80049C14.3758 6.58799 15.4667 7.6947 16.3112 8.9997C16.3118 9.00051 16.3121 9.0015 16.3121 9.00252C16.3121 9.00353 16.3118 9.00453 16.3112 9.00533C15.6982 9.97034 14.9375 10.8331 14.057 11.5622C14.0494 11.5685 14.0432 11.5762 14.0389 11.5849C14.0345 11.5936 14.0319 11.6032 14.0314 11.6129C14.0309 11.6227 14.0325 11.6324 14.036 11.6416C14.0395 11.6507 14.0448 11.659 14.0517 11.666L14.7513 12.3652C14.7637 12.3777 14.7803 12.3851 14.7979 12.386C14.8154 12.3868 14.8327 12.381 14.8462 12.3698C15.7863 11.5782 16.6 10.6478 17.2593 9.61072C17.3759 9.42796 17.4375 9.21559 17.4369 8.99884C17.4362 8.78209 17.3734 8.57007 17.2558 8.38799Z" fill="url(#paint2_linear_360_51)"/>
<path d="M8.99972 5.6247C8.74692 5.62457 8.49491 5.65287 8.24844 5.70908C8.23599 5.71166 8.22447 5.71758 8.21512 5.72619C8.20576 5.7348 8.19891 5.74578 8.19531 5.75798C8.1917 5.77017 8.19147 5.78311 8.19463 5.79542C8.1978 5.80774 8.20424 5.81896 8.21328 5.82791L12.1715 9.78509C12.1805 9.79413 12.1917 9.80058 12.204 9.80374C12.2163 9.80691 12.2293 9.80667 12.2415 9.80307C12.2536 9.79946 12.2646 9.79261 12.2732 9.78326C12.2819 9.7739 12.2878 9.76239 12.2903 9.74994C12.403 9.25566 12.4029 8.74233 12.29 8.2481C12.1771 7.75386 11.9543 7.29141 11.6382 6.89509C11.3221 6.49877 10.9207 6.17876 10.4639 5.95883C10.0071 5.7389 9.50669 5.62469 8.99972 5.6247Z" fill="url(#paint3_linear_360_51)"/>
<path d="M5.82793 8.21431C5.81899 8.20527 5.80776 8.19883 5.79544 8.19566C5.78313 8.1925 5.77019 8.19273 5.758 8.19634C5.7458 8.19995 5.73482 8.20679 5.72621 8.21615C5.7176 8.2255 5.71168 8.23702 5.7091 8.24947C5.5816 8.80647 5.59761 9.38672 5.75563 9.93584C5.91364 10.485 6.20849 10.985 6.61253 11.389C7.01657 11.7931 7.51658 12.0879 8.0657 12.2459C8.61482 12.4039 9.19507 12.4199 9.75207 12.2924C9.76452 12.2899 9.77603 12.2839 9.78539 12.2753C9.79474 12.2667 9.80159 12.2557 9.8052 12.2435C9.8088 12.2313 9.80904 12.2184 9.80587 12.2061C9.80271 12.1938 9.79626 12.1826 9.78722 12.1736L5.82793 8.21431Z" fill="url(#paint4_linear_360_51)"/>
<defs>
<linearGradient id="paint0_linear_360_51" x1="0.561523" y1="9.0048" x2="17.4369" y2="9.0048" gradientUnits="userSpaceOnUse">
<stop stop-color="#36D1DC"/>
<stop offset="1" stop-color="#5B86E5"/>
</linearGradient>
<linearGradient id="paint1_linear_360_51" x1="0.561523" y1="9.0048" x2="17.4369" y2="9.0048" gradientUnits="userSpaceOnUse">
<stop stop-color="#36D1DC"/>
<stop offset="1" stop-color="#5B86E5"/>
</linearGradient>
<linearGradient id="paint2_linear_360_51" x1="0.561523" y1="9.0048" x2="17.4369" y2="9.0048" gradientUnits="userSpaceOnUse">
<stop stop-color="#36D1DC"/>
<stop offset="1" stop-color="#5B86E5"/>
</linearGradient>
<linearGradient id="paint3_linear_360_51" x1="0.561523" y1="9.0048" x2="17.4369" y2="9.0048" gradientUnits="userSpaceOnUse">
<stop stop-color="#36D1DC"/>
<stop offset="1" stop-color="#5B86E5"/>
</linearGradient>
<linearGradient id="paint4_linear_360_51" x1="0.561523" y1="9.0048" x2="17.4369" y2="9.0048" gradientUnits="userSpaceOnUse">
<stop stop-color="#36D1DC"/>
<stop offset="1" stop-color="#5B86E5"/>
</linearGradient>
</defs>
</svg>
