<svg width="17" height="17" viewBox="0 0 17 17" fill="none" xmlns="http://www.w3.org/2000/svg">
<path d="M0.0292969 0.0292969H16.9707V16.9707H0.0292969V0.0292969Z" stroke="#0F172A" stroke-width="0.0585938"/>
<path d="M8.5 3.71875C3.1875 3.71875 1.0625 8.5 1.0625 8.5C1.0625 8.5 3.1875 13.2812 8.5 13.2812C13.8125 13.2812 15.9375 8.5 15.9375 8.5C15.9375 8.5 13.8125 3.71875 8.5 3.71875Z" stroke="#0F172A" stroke-linecap="round" stroke-linejoin="round"/>
<path d="M8.5 11.1562C9.96701 11.1562 11.1562 9.96701 11.1562 8.5C11.1562 7.03299 9.96701 5.84375 8.5 5.84375C7.03299 5.84375 5.84375 7.03299 5.84375 8.5C5.84375 9.96701 7.03299 11.1562 8.5 11.1562Z" stroke="#0F172A" stroke-width="0.9375" stroke-linecap="round" stroke-linejoin="round"/>
</svg>
