<svg width="17" height="17" viewBox="0 0 17 17" fill="none" xmlns="http://www.w3.org/2000/svg">
<path d="M3.1875 2.65625L13.8125 14.3438" stroke="#0F172A" stroke-linecap="round" stroke-linejoin="round"/>
<path d="M10.2863 10.4656C9.79882 10.9122 9.16105 11.1588 8.49996 11.1562C7.96384 11.1562 7.44028 10.9939 6.99812 10.6907C6.55596 10.3875 6.21588 9.95766 6.02261 9.45759C5.82933 8.95752 5.7919 8.41066 5.91524 7.88892C6.03858 7.36718 6.3169 6.89497 6.71363 6.53437" stroke="#0F172A" stroke-linecap="round" stroke-linejoin="round"/>
<path d="M4.91406 4.55547C2.20469 5.92344 1.0625 8.5 1.0625 8.5C1.0625 8.5 3.1875 13.2813 8.5 13.2813C9.74483 13.2914 10.9741 13.0046 12.0859 12.4445" stroke="#0F172A" stroke-linecap="round" stroke-linejoin="round"/>
<path d="M13.8523 11.2293C15.3 9.93438 15.9375 8.5 15.9375 8.5C15.9375 8.5 13.8125 3.71875 8.49998 3.71875C8.03942 3.71784 7.5796 3.7556 7.12537 3.83164" stroke="#0F172A" stroke-linecap="round" stroke-linejoin="round"/>
<path d="M8.99805 5.89023C9.56293 5.99726 10.0777 6.28512 10.4646 6.71038C10.8515 7.13563 11.0896 7.6752 11.143 8.24765" stroke="#0F172A" stroke-linecap="round" stroke-linejoin="round"/>
</svg>
