<svg width="18" height="19" viewBox="0 0 18 19" fill="none" xmlns="http://www.w3.org/2000/svg">
<path d="M8.99972 11.7539C10.2424 11.7539 11.2497 10.7465 11.2497 9.50391C11.2497 8.26127 10.2424 7.25391 8.99972 7.25391C7.75708 7.25391 6.74972 8.26127 6.74972 9.50391C6.74972 10.7465 7.75708 11.7539 8.99972 11.7539Z" fill="url(#paint0_linear_365_65)"/>
<path d="M17.2558 8.89219C16.3256 7.45359 15.1187 6.23156 13.7659 5.35793C12.2693 4.39043 10.6169 3.87891 8.98777 3.87891C7.49293 3.87891 6.02304 4.30605 4.6189 5.1484C3.18699 6.00727 1.88972 7.26199 0.762967 8.87742C0.635766 9.05999 0.565712 9.27625 0.561705 9.49873C0.557699 9.7212 0.619922 9.93985 0.740467 10.1269C1.66894 11.5799 2.8639 12.8037 4.19562 13.6654C5.69504 14.6367 7.30871 15.1289 8.98777 15.1289C10.6299 15.1289 12.2858 14.6216 13.7761 13.6622C15.1282 12.7914 16.3326 11.5648 17.2593 10.1142C17.3757 9.93154 17.4373 9.7193 17.4366 9.50269C17.436 9.28608 17.3733 9.0742 17.2558 8.89219ZM8.99972 12.8789C8.33221 12.8789 7.67969 12.681 7.12467 12.3101C6.56966 11.9393 6.13708 11.4122 5.88163 10.7955C5.62619 10.1788 5.55935 9.50016 5.68957 8.84548C5.8198 8.19079 6.14124 7.58942 6.61324 7.11742C7.08524 6.64542 7.68661 6.32398 8.34129 6.19376C8.99598 6.06353 9.67458 6.13037 10.2913 6.38581C10.908 6.64126 11.4351 7.07384 11.8059 7.62886C12.1768 8.18387 12.3747 8.83639 12.3747 9.50391C12.3737 10.3987 12.0178 11.2565 11.3851 11.8893C10.7524 12.522 9.89452 12.8779 8.99972 12.8789Z" fill="url(#paint1_linear_365_65)"/>
<defs>
<linearGradient id="paint0_linear_365_65" x1="0.561523" y1="9.50391" x2="17.4366" y2="9.50391" gradientUnits="userSpaceOnUse">
<stop stop-color="#36D1DC"/>
<stop offset="1" stop-color="#5B86E5"/>
</linearGradient>
<linearGradient id="paint1_linear_365_65" x1="0.561523" y1="9.50391" x2="17.4366" y2="9.50391" gradientUnits="userSpaceOnUse">
<stop stop-color="#36D1DC"/>
<stop offset="1" stop-color="#5B86E5"/>
</linearGradient>
</defs>
</svg>
