<svg width="70" height="73" viewBox="0 0 70 73" fill="none" xmlns="http://www.w3.org/2000/svg">
<g clip-path="url(#clip0_79_222)">
<path d="M7.21652 72.5408C10.8248 72.5408 13.3505 70.7367 15.8763 69.2934C18.0413 68.2109 20.2062 66.7676 22.732 65.6851C34.2784 59.5511 45.8248 53.0563 57.3712 46.5614C60.9794 44.7573 65.6701 42.9532 68.1959 39.7057C68.9176 38.6233 70 37.18 69.6392 35.3759C68.5567 31.4068 63.5052 29.9635 60.2578 28.1594C52.3196 23.8295 44.0206 19.1387 36.0825 14.8088C33.1959 13.0047 28.866 9.7573 25.2578 12.2831C23.8145 13.0047 23.0928 13.7264 22.732 14.8088C22.3712 16.2521 22.732 18.0563 22.732 19.4996V31.046C22.732 34.2934 22.3712 36.8192 24.5361 38.2625C25.2578 38.6233 26.7011 38.9841 27.7835 38.6233C31.3918 37.18 30.3093 30.6851 30.3093 25.6336V21.6645C36.4433 24.9119 42.5773 28.1594 48.7114 31.046C50.8763 32.1284 54.4846 33.2109 55.2062 36.0975C55.9279 39.3449 49.0722 41.8707 46.9072 42.9532L22.0103 57.0253C20.2062 58.1078 15.5155 61.7161 12.6289 60.6336C11.5464 60.2728 10.8248 59.1903 10.8248 58.4686C10.4639 57.0253 10.4639 54.8604 10.4639 53.0563V41.5099V22.0253C10.4639 19.1387 10.1031 15.5305 11.1856 13.7264C13.7114 10.1181 19.4846 16.613 21.2887 10.8398C21.6495 9.39647 20.9279 7.95317 20.2062 7.23152C18.7629 5.06658 12.2681 1.81915 9.7423 1.0975C9.02065 0.736679 7.21652 0.375854 6.13405 0.375854C2.69413e-05 1.45833 1.44333 11.2006 1.44333 18.4171V54.1387C1.44333 59.5511 0.721676 66.7676 2.88663 70.015C3.9691 71.8191 5.05157 71.8192 7.21652 72.5408ZM25.9794 49.0872C31.3918 49.0872 31.7526 42.2315 26.7011 41.149C23.8145 40.7882 21.6495 43.6748 22.3712 46.2006C23.0928 48.0047 24.1753 48.3655 25.9794 49.0872Z" fill="#2563EB"/>
</g>
<defs>
<clipPath id="clip0_79_222">
<rect width="70" height="72.9167" fill="white"/>
</clipPath>
</defs>
</svg>
