<svg width="18" height="18" viewBox="0 0 18 18" fill="none" xmlns="http://www.w3.org/2000/svg">
<path d="M9.00001 9C7.14025 9 5.50196 7.25273 5.34376 5.10469C5.2629 4.01484 5.6004 3.00586 6.29298 2.26406C6.97501 1.5293 7.93829 1.125 9.00001 1.125C10.0547 1.125 11.0145 1.53281 11.7 2.27109C12.3961 3.01992 12.7336 4.02539 12.6528 5.10469C12.4946 7.25273 10.8563 9 9.00001 9ZM9.00001 2.25C8.2547 2.25 7.58322 2.52773 7.11564 3.03047C6.64103 3.54023 6.409 4.25039 6.46525 5.02383C6.57775 6.5707 7.7379 7.87852 8.9965 7.87852C10.2551 7.87852 11.4153 6.5707 11.5278 5.02383C11.584 4.26094 11.352 3.5543 10.8703 3.0375C10.4063 2.52773 9.7383 2.25 9.00001 2.25Z" fill="url(#paint0_linear_360_40)"/>
<path d="M15.1875 16.8749H2.81252C2.47502 16.8749 2.17267 16.7343 1.96174 16.4847C1.73322 16.2105 1.64181 15.8378 1.70861 15.4617C2.00392 13.8163 2.93205 12.4312 4.38752 11.4644C5.68127 10.6031 7.31955 10.1285 9.00002 10.1285C10.6805 10.1285 12.3188 10.6031 13.6125 11.4644C15.068 12.4347 15.9961 13.8163 16.2914 15.4617C16.3582 15.8378 16.2668 16.2105 16.0383 16.4847C15.8274 16.7343 15.525 16.8749 15.1875 16.8749ZM2.81955 15.7499H15.1805C15.1875 15.7324 15.191 15.7042 15.184 15.6585C14.6391 12.6316 11.5945 11.2499 9.00002 11.2499C6.40549 11.2499 3.36095 12.6316 2.81603 15.6585C2.809 15.7042 2.81252 15.7324 2.81955 15.7499Z" fill="url(#paint1_linear_360_40)"/>
<defs>
<linearGradient id="paint0_linear_360_40" x1="1.68726" y1="8.99997" x2="16.3128" y2="8.99997" gradientUnits="userSpaceOnUse">
<stop stop-color="#36D1DC"/>
<stop offset="1" stop-color="#5B86E5"/>
</linearGradient>
<linearGradient id="paint1_linear_360_40" x1="1.68726" y1="8.99997" x2="16.3128" y2="8.99997" gradientUnits="userSpaceOnUse">
<stop stop-color="#36D1DC"/>
<stop offset="1" stop-color="#5B86E5"/>
</linearGradient>
</defs>
</svg>
